<?xml version="1.0" encoding="utf-8"?>
<!-- Generator: Adobe Illustrator 16.0.4, SVG Export Plug-In . SVG Version: 6.00 Build 0)  -->
<!DOCTYPE svg PUBLIC "-//W3C//DTD SVG 1.1//EN" "http://www.w3.org/Graphics/SVG/1.1/DTD/svg11.dtd">
<svg version="1.1" id="Layer_1" xmlns="http://www.w3.org/2000/svg" xmlns:xlink="http://www.w3.org/1999/xlink" x="0px" y="0px"
	 width="102.377px" height="48.27px" viewBox="0 0 102.377 48.27" enable-background="new 0 0 102.377 48.27" xml:space="preserve">
<g>
	<path fill="#FFC907" d="M97.677,35.005l-41.451-15.26c-0.286-0.104-0.562-0.155-0.819-0.155c-0.991,0-1.709,0.742-1.709,1.92v5.253
		c0,1.479,1.139,3.11,2.528,3.623l41.451,15.26c0.286,0.104,0.562,0.154,0.819,0.154c0.992,0,1.709-0.741,1.709-1.919v-5.252
		C100.205,37.148,99.068,35.518,97.677,35.005z"/>
	<path fill="#FFC907" d="M97.677,2.625L57.597,17.38l14.452,5.32l25.628-9.436c1.392-0.513,2.528-2.144,2.528-3.624V4.388
		C100.205,2.907,99.068,2.114,97.677,2.625z"/>
	<path fill="#FFC907" d="M4.7,35.005c-1.391,0.513-2.528,2.144-2.528,3.624v5.252c0,1.48,1.137,2.274,2.528,1.765l40.08-14.754
		l-14.452-5.32L4.7,35.005z"/>
	<path fill="#FFC907" d="M46.151,17.886L4.7,2.625C4.414,2.522,4.138,2.471,3.881,2.471c-0.992,0-1.709,0.741-1.709,1.919v5.253
		c0,1.48,1.137,3.111,2.528,3.624l41.451,15.259c0.287,0.104,0.562,0.156,0.82,0.156c0.991,0,1.708-0.743,1.708-1.919V21.51
		C48.679,20.028,47.541,18.397,46.151,17.886z"/>
</g>
</svg>
